<?xml version="1.0"?>
<svg version="1.1" xmlns="http://www.w3.org/2000/svg" xmlns:xlink="http://www.w3.org/1999/xlink" width="44" height="44">
    <desc iVinci="yes" version="4.6" gridStep="20" showGrid="no" snapToGrid="no" codePlatform="0"/>
    <g id="Layer1" name="Layer 1" opacity="1">
        <g id="Shape1">
            <desc shapeID="1" type="0" basicInfo-basicType="0" basicInfo-roundedRectRadius="12" basicInfo-polygonSides="6" basicInfo-starPoints="5" bounding="rect(-9,-5.78923,18,11.5785)" text="" font-familyName="" font-pixelSize="20" font-bold="0" font-underline="0" font-alignment="1" strokeStyle="0" markerStart="0" markerEnd="0" shadowEnabled="0" shadowOffsetX="0" shadowOffsetY="2" shadowBlur="4" shadowOpacity="160" blurEnabled="0" blurRadius="4" transform="matrix(1,0,0,1,22,23.2108)" pers-center="0,0" pers-size="0,0" pers-start="0,0" pers-end="0,0" locked="0" mesh="" flag=""/>
            <path id="shapePath1" d="M30.2,17.5 L22.6,23 C22.2,23.3 21.8,23.3 21.4,23 L13.8,17.5 C13.5,17.3 13,17.5 13,17.9 L13,28.5 C13,28.8 13.2,29 13.5,29 L30.5,29 C30.8,29 31,28.8 31,28.5 L31,17.9 C31,17.5 30.5,17.3 30.2,17.5 Z" style="stroke:none;fill-rule:nonzero;fill:url(#linearGradientFill1);fill-opacity:1;"/><defs><linearGradient id="linearGradientFill1" gradientUnits="userSpaceOnUse" x1="13" y1="23.2108" x2="31" y2="23.2108"><stop offset="0" stop-color="#cb2027" stop-opacity="1"/><stop offset="1" stop-color="#cb2027" stop-opacity="1"/></linearGradient></defs>
        </g>
        <g id="Shape2">
            <desc shapeID="2" type="0" basicInfo-basicType="0" basicInfo-roundedRectRadius="12" basicInfo-polygonSides="6" basicInfo-starPoints="5" bounding="rect(-3.81279,-1.6875,7.62558,3.375)" text="" font-familyName="" font-pixelSize="20" font-bold="0" font-underline="0" font-alignment="1" strokeStyle="0" markerStart="0" markerEnd="0" shadowEnabled="0" shadowOffsetX="0" shadowOffsetY="2" shadowBlur="4" shadowOpacity="160" blurEnabled="0" blurRadius="4" transform="matrix(1,0,0,1,22,16.6875)" pers-center="0,0" pers-size="0,0" pers-start="0,0" pers-end="0,0" locked="0" mesh="" flag=""/>
            <path id="shapePath2" d="M21.7,18.3 C21.9,18.4 22.1,18.4 22.3,18.3 L25.6,15.9 C26,15.6 25.8,15 25.3,15 L18.7,15 C18.2,15 18,15.6 18.4,15.9 L21.7,18.3 Z" style="stroke:none;fill-rule:nonzero;fill:url(#linearGradientFill2);fill-opacity:1;"/><defs><linearGradient id="linearGradientFill2" gradientUnits="userSpaceOnUse" x1="13" y1="23.2108" x2="31" y2="23.2108"><stop offset="0" stop-color="#cb2027" stop-opacity="1"/><stop offset="1" stop-color="#cb2027" stop-opacity="1"/></linearGradient></defs>
        </g>
        <g id="Shape3">
            <desc shapeID="3" type="0" basicInfo-basicType="0" basicInfo-roundedRectRadius="12" basicInfo-polygonSides="6" basicInfo-starPoints="5" bounding="rect(-22,-22,44,44)" text="" font-familyName="" font-pixelSize="20" font-bold="0" font-underline="0" font-alignment="1" strokeStyle="0" markerStart="0" markerEnd="0" shadowEnabled="0" shadowOffsetX="0" shadowOffsetY="2" shadowBlur="4" shadowOpacity="160" blurEnabled="0" blurRadius="4" transform="matrix(1,0,0,1,22,22)" pers-center="0,0" pers-size="0,0" pers-start="0,0" pers-end="0,0" locked="0" mesh="" flag=""/>
            <path id="shapePath3" d="M22,0 C9.8,0 0,9.8 0,22 C0,34.2 9.8,44 22,44 C34.2,44 44,34.2 44,22 C44,9.8 34.2,0 22,0 M35,32 C35,32.6 34.6,33 34,33 L10,33 C9.4,33 9,32.6 9,32 L9,12 C9,11.4 9.4,11 10,11 L34,11 C34.6,11 35,11.4 35,12 L35,32 Z" style="stroke:none;fill-rule:nonzero;fill:url(#linearGradientFill3);fill-opacity:1;"/><defs><linearGradient id="linearGradientFill3" gradientUnits="userSpaceOnUse" x1="13" y1="23.2108" x2="31" y2="23.2108"><stop offset="0" stop-color="#cb2027" stop-opacity="1"/><stop offset="1" stop-color="#cb2027" stop-opacity="1"/></linearGradient></defs>
        </g>
    </g>
</svg>
