<?xml version="1.0"?>
<svg version="1.1" xmlns="http://www.w3.org/2000/svg" xmlns:xlink="http://www.w3.org/1999/xlink" width="89.758" height="89.758">
    <desc iVinci="yes" version="4.6" gridStep="20" showGrid="no" snapToGrid="no" codePlatform="0"/>
    <g id="Layer1" name="Layer 1" opacity="1">
        <g id="Shape1">
            <desc shapeID="1" type="0" basicInfo-basicType="0" basicInfo-roundedRectRadius="12" basicInfo-polygonSides="6" basicInfo-starPoints="5" bounding="rect(-21.1205,-21.1205,42.241,42.241)" text="" font-familyName="" font-pixelSize="20" font-bold="0" font-underline="0" font-alignment="1" strokeStyle="0" markerStart="0" markerEnd="0" shadowEnabled="0" shadowOffsetX="0" shadowOffsetY="2" shadowBlur="4" shadowOpacity="160" blurEnabled="0" blurRadius="4" transform="matrix(1,0,0,1,44.8795,45.0005)" pers-center="0,0" pers-size="0,0" pers-start="0,0" pers-end="0,0" locked="0" mesh="" flag=""/>
            <path id="shapePath1" d="M58.255,23.88 L31.503,23.88 C27.233,23.88 23.759,27.354 23.759,31.624 L23.759,58.376 C23.759,62.646 27.233,66.121 31.503,66.121 L58.255,66.121 C62.525,66.121 66,62.647 66,58.376 L66,31.624 C66,27.354 62.526,23.88 58.255,23.88 M44.879,58.906 C37.212,58.906 30.974,52.668 30.974,45 C30.974,37.333 37.212,31.095 44.879,31.095 C52.547,31.095 58.785,37.333 58.785,45 C58.785,52.667 52.546,58.906 44.879,58.906 M59.232,33.97 C57.417,33.97 55.941,32.494 55.941,30.68 C55.941,28.866 57.417,27.39 59.232,27.39 C61.046,27.39 62.522,28.866 62.522,30.68 C62.522,32.494 61.046,33.97 59.232,33.97 Z" style="stroke:none;fill-rule:nonzero;fill:url(#linearGradientFill1);fill-opacity:1;"/><defs><linearGradient id="linearGradientFill1" gradientUnits="userSpaceOnUse" x1="23.759" y1="45.0005" x2="66" y2="45.0005"><stop offset="0.0256992" stop-color="#125688" stop-opacity="1"/><stop offset="1" stop-color="#125688" stop-opacity="1"/></linearGradient></defs>
        </g>
        <g id="Shape2">
            <desc shapeID="2" type="0" basicInfo-basicType="0" basicInfo-roundedRectRadius="12" basicInfo-polygonSides="6" basicInfo-starPoints="5" bounding="rect(-8.0295,-8.0295,16.059,16.059)" text="" font-familyName="" font-pixelSize="20" font-bold="0" font-underline="0" font-alignment="1" strokeStyle="0" markerStart="0" markerEnd="0" shadowEnabled="0" shadowOffsetX="0" shadowOffsetY="2" shadowBlur="4" shadowOpacity="160" blurEnabled="0" blurRadius="4" transform="matrix(1,0,0,1,44.8785,45.0005)" pers-center="0,0" pers-size="0,0" pers-start="0,0" pers-end="0,0" locked="0" mesh="" flag=""/>
            <path id="shapePath2" d="M44.879,36.971 C40.453,36.971 36.849,40.573 36.849,44.999 C36.849,49.427 40.453,53.03 44.879,53.03 C49.307,53.03 52.908,49.427 52.908,44.999 C52.908,40.574 49.306,36.971 44.879,36.971 Z" style="stroke:none;fill-rule:nonzero;fill:#125688;fill-opacity:1;"/>
        </g>
        <g id="Shape3">
            <desc shapeID="3" type="0" basicInfo-basicType="0" basicInfo-roundedRectRadius="12" basicInfo-polygonSides="6" basicInfo-starPoints="5" bounding="rect(-44.879,-44.879,89.758,89.758)" text="" font-familyName="" font-pixelSize="20" font-bold="0" font-underline="0" font-alignment="1" strokeStyle="0" markerStart="0" markerEnd="0" shadowEnabled="0" shadowOffsetX="0" shadowOffsetY="2" shadowBlur="4" shadowOpacity="160" blurEnabled="0" blurRadius="4" transform="matrix(1,0,0,1,44.879,44.879)" pers-center="0,0" pers-size="0,0" pers-start="0,0" pers-end="0,0" locked="0" mesh="" flag=""/>
            <path id="shapePath3" d="M44.879,0 C20.094,0 0,20.094 0,44.879 C0,69.664 20.094,89.758 44.879,89.758 C69.664,89.758 89.758,69.664 89.758,44.879 C89.758,20.094 69.664,0 44.879,0 M71.875,58.376 C71.875,65.887 65.766,71.996 58.255,71.996 L31.503,71.996 C23.993,71.996 17.883,65.887 17.883,58.376 L17.883,31.624 C17.883,24.114 23.993,18.004 31.503,18.004 L58.255,18.004 C65.766,18.004 71.875,24.114 71.875,31.624 L71.875,58.376 Z" style="stroke:none;fill-rule:nonzero;fill:url(#linearGradientFill3);fill-opacity:1;"/><defs><linearGradient id="linearGradientFill3" gradientUnits="userSpaceOnUse" x1="23.759" y1="45.0005" x2="66" y2="45.0005"><stop offset="0.0256992" stop-color="#125688" stop-opacity="1"/><stop offset="1" stop-color="#125688" stop-opacity="1"/></linearGradient></defs>
        </g>
    </g>
</svg>
