<?xml version="1.0"?>
<svg version="1.1" xmlns="http://www.w3.org/2000/svg" xmlns:xlink="http://www.w3.org/1999/xlink" width="551.034" height="551.034">
    <desc iVinci="yes" version="4.6" gridStep="20" showGrid="no" snapToGrid="no" codePlatform="0"/>
    <g id="Layer1" name="Layer 1" opacity="1">
        <g id="Shape1">
            <desc shapeID="1" type="0" basicInfo-basicType="0" basicInfo-roundedRectRadius="12" basicInfo-polygonSides="6" basicInfo-starPoints="5" bounding="rect(-275.517,-275.517,551.034,551.034)" text="" font-familyName="" font-pixelSize="20" font-bold="0" font-underline="0" font-alignment="1" strokeStyle="0" markerStart="0" markerEnd="0" shadowEnabled="0" shadowOffsetX="0" shadowOffsetY="2" shadowBlur="4" shadowOpacity="160" blurEnabled="0" blurRadius="4" transform="matrix(1,0,0,1,275.517,275.517)" pers-center="0,0" pers-size="0,0" pers-start="0,0" pers-end="0,0" locked="0" mesh="" flag=""/>
            <path id="shapePath1" d="M386.878,0 L164.156,0 C73.64,0 0,73.64 0,164.156 L0,386.878 C0,477.394 73.64,551.034 164.156,551.034 L386.878,551.034 C477.394,551.034 551.034,477.394 551.034,386.878 L551.034,164.156 C551.033,73.64 477.393,0 386.878,0 M495.6,386.878 C495.6,446.923 446.923,495.6 386.878,495.6 L164.156,495.6 C104.111,495.6 55.434,446.923 55.434,386.878 L55.434,164.156 C55.434,104.11 104.111,55.434 164.156,55.434 L386.878,55.434 C446.923,55.434 495.6,104.11 495.6,164.156 L495.6,386.878 Z" style="stroke:none;fill-rule:nonzero;fill:url(#linearGradientFill1);fill-opacity:1;"/><defs><linearGradient id="linearGradientFill1" gradientUnits="userSpaceOnUse" x1="275.517" y1="549.429" x2="275.517" y2="4.27979"><stop offset="0" stop-color="#000000" stop-opacity="1"/><stop offset="0.3" stop-color="#000000" stop-opacity="1"/><stop offset="0.6" stop-color="#000000" stop-opacity="1"/><stop offset="1" stop-color="#000000" stop-opacity="1"/></linearGradient></defs>
        </g>
        <g id="Shape2">
            <desc shapeID="2" type="0" basicInfo-basicType="0" basicInfo-roundedRectRadius="12" basicInfo-polygonSides="6" basicInfo-starPoints="5" bounding="rect(-142.517,-142.516,285.034,285.033)" text="" font-familyName="" font-pixelSize="20" font-bold="0" font-underline="0" font-alignment="1" strokeStyle="0" markerStart="0" markerEnd="0" shadowEnabled="0" shadowOffsetX="0" shadowOffsetY="2" shadowBlur="4" shadowOpacity="160" blurEnabled="0" blurRadius="4" transform="matrix(1,0,0,1,275.517,275.516)" pers-center="0,0" pers-size="0,0" pers-start="0,0" pers-end="0,0" locked="0" mesh="" flag=""/>
            <path id="shapePath2" d="M275.517,133 C196.933,133 133,196.933 133,275.516 C133,354.099 196.933,418.033 275.517,418.033 C354.101,418.033 418.034,354.1 418.034,275.516 C418.034,196.932 354.101,133 275.517,133 M275.517,362.6 C227.422,362.6 188.434,323.612 188.434,275.517 C188.434,227.422 227.423,188.434 275.517,188.434 C323.612,188.434 362.6,227.422 362.6,275.517 C362.6,323.611 323.611,362.6 275.517,362.6 Z" style="stroke:none;fill-rule:nonzero;fill:url(#linearGradientFill2);fill-opacity:1;"/><defs><linearGradient id="linearGradientFill2" gradientUnits="userSpaceOnUse" x1="275.517" y1="549.429" x2="275.517" y2="4.27979"><stop offset="0" stop-color="#000000" stop-opacity="1"/><stop offset="0.3" stop-color="#000000" stop-opacity="1"/><stop offset="0.6" stop-color="#000000" stop-opacity="1"/><stop offset="1" stop-color="#000000" stop-opacity="1"/></linearGradient></defs>
        </g>
        <g id="Shape3">
            <desc shapeID="3" type="0" basicInfo-basicType="0" basicInfo-roundedRectRadius="12" basicInfo-polygonSides="6" basicInfo-starPoints="5" bounding="rect(-34.149,-34.149,68.298,68.298)" text="" font-familyName="" font-pixelSize="20" font-bold="0" font-underline="0" font-alignment="1" strokeStyle="0" markerStart="0" markerEnd="0" shadowEnabled="0" shadowOffsetX="0" shadowOffsetY="2" shadowBlur="4" shadowOpacity="160" blurEnabled="0" blurRadius="4" transform="matrix(1,0,0,1,418.306,134.072)" pers-center="0,0" pers-size="0,0" pers-start="0,0" pers-end="0,0" locked="0" mesh="" flag=""/>
            <path id="shapePath3" d="M452.455,134.072 C452.455,152.932 437.166,168.221 418.306,168.221 C399.446,168.221 384.157,152.932 384.157,134.072 C384.157,115.212 399.446,99.923 418.306,99.923 C437.166,99.923 452.455,115.212 452.455,134.072 Z" style="stroke:none;fill-rule:evenodd;fill:url(#linearGradientFill3);fill-opacity:1;"/><defs><linearGradient id="linearGradientFill3" gradientUnits="userSpaceOnUse" x1="275.517" y1="549.429" x2="275.517" y2="4.27979"><stop offset="0" stop-color="#000000" stop-opacity="1"/><stop offset="0.3" stop-color="#000000" stop-opacity="1"/><stop offset="0.6" stop-color="#000000" stop-opacity="1"/><stop offset="1" stop-color="#000000" stop-opacity="1"/></linearGradient></defs>
        </g>
    </g>
</svg>
