<?xml version="1.0"?>
<svg version="1.1" xmlns="http://www.w3.org/2000/svg" xmlns:xlink="http://www.w3.org/1999/xlink" width="114" height="114">
    <desc iVinci="yes" version="4.6" gridStep="20" showGrid="yes" snapToGrid="no" codePlatform="0"/>
    <g id="Layer1" name="Layer 1" opacity="1">
        <g id="Shape1">
            <desc shapeID="1" type="0" basicInfo-basicType="0" basicInfo-roundedRectRadius="12" basicInfo-polygonSides="6" basicInfo-starPoints="5" bounding="rect(-4.537,-4.552,9.07401,9.104)" text="" font-familyName="" font-pixelSize="20" font-bold="0" font-underline="0" font-alignment="1" strokeStyle="0" markerStart="0" markerEnd="0" shadowEnabled="0" shadowOffsetX="0" shadowOffsetY="2" shadowBlur="4" shadowOpacity="160" blurEnabled="0" blurRadius="4" transform="matrix(1.15709,0,0,1.15709,75.3174,39.1129)" pers-center="0,0" pers-size="0,0" pers-start="0,0" pers-end="0,0" locked="0" mesh="" flag=""/>
            <path id="shapePath1" d="M80.5671,44.3453 L80.5671,35.2112 L80.5671,33.8458 L79.2018,33.8505 L70.0676,33.8829 L70.1024,44.38 L80.5671,44.3453 Z" style="stroke:none;fill-rule:nonzero;fill:#125688;fill-opacity:1;"/>
        </g>
        <g id="Shape2">
            <desc shapeID="2" type="0" basicInfo-basicType="0" basicInfo-roundedRectRadius="12" basicInfo-polygonSides="6" basicInfo-starPoints="5" bounding="rect(-9.424,-9.424,18.848,18.848)" text="" font-familyName="" font-pixelSize="20" font-bold="0" font-underline="0" font-alignment="1" strokeStyle="0" markerStart="0" markerEnd="0" shadowEnabled="0" shadowOffsetX="0" shadowOffsetY="2" shadowBlur="4" shadowOpacity="160" blurEnabled="0" blurRadius="4" transform="matrix(1.15709,0,0,1.15709,56.7634,57.6843)" pers-center="0,0" pers-size="0,0" pers-start="0,0" pers-end="0,0" locked="0" mesh="" flag=""/>
            <path id="shapePath2" d="M56.7611,68.5887 C62.7733,68.5887 67.6678,63.6989 67.6678,57.6866 C67.6678,55.3146 66.8949,53.1161 65.6013,51.3272 C63.6226,48.5826 60.399,46.7798 56.7611,46.7798 C53.1232,46.7798 49.9041,48.5826 47.9209,51.3272 C46.6272,53.1161 45.8589,55.3146 45.8589,57.6866 C45.8589,63.6989 50.7488,68.5887 56.7611,68.5887 Z" style="stroke:none;fill-rule:nonzero;fill:#125688;fill-opacity:1;"/>
        </g>
        <g id="Shape3">
            <desc shapeID="3" type="0" basicInfo-basicType="0" basicInfo-roundedRectRadius="12" basicInfo-polygonSides="6" basicInfo-starPoints="5" bounding="rect(-49.248,-49.248,98.496,98.496)" text="" font-familyName="" font-pixelSize="20" font-bold="0" font-underline="0" font-alignment="1" strokeStyle="0" markerStart="0" markerEnd="0" shadowEnabled="0" shadowOffsetX="0" shadowOffsetY="2" shadowBlur="4" shadowOpacity="160" blurEnabled="0" blurRadius="4" transform="matrix(1.15709,0,0,1.15709,57.0434,56.8188)" pers-center="0,0" pers-size="0,0" pers-start="0,0" pers-end="0,0" locked="0" mesh="" flag=""/>
            <path id="shapePath3" d="M57.0457,-0.16581 C25.5727,-0.16581 0.058815,25.3435 0.058815,56.8165 C0.058815,88.2894 25.5727,113.803 57.0457,113.803 C88.5141,113.803 114.028,88.2894 114.028,56.8165 C114.028,25.3435 88.5117,-0.16581 57.0457,-0.16581 M87.7388,51.3272 L87.7388,76.693 C87.7388,83.2931 82.3653,88.662 75.7652,88.662 L37.7546,88.662 C31.1523,88.662 25.7833,83.2931 25.7833,76.693 L25.7833,51.3272 L25.7833,38.6825 C25.7833,32.0801 31.1523,26.7112 37.7546,26.7112 L75.7652,26.7112 C82.3653,26.7112 87.7388,32.0801 87.7388,38.6825 L87.7388,51.3272 Z" style="stroke:none;fill-rule:nonzero;fill:#125688;fill-opacity:1;"/>
        </g>
        <g id="Shape4">
            <desc shapeID="4" type="0" basicInfo-basicType="0" basicInfo-roundedRectRadius="12" basicInfo-polygonSides="6" basicInfo-starPoints="5" bounding="rect(-21.553,-13.525,43.106,27.05)" text="" font-familyName="" font-pixelSize="20" font-bold="0" font-underline="0" font-alignment="1" strokeStyle="0" markerStart="0" markerEnd="0" shadowEnabled="0" shadowOffsetX="0" shadowOffsetY="2" shadowBlur="4" shadowOpacity="160" blurEnabled="0" blurRadius="4" transform="matrix(1.15709,0,0,1.15709,56.7599,66.9769)" pers-center="0,0" pers-size="0,0" pers-start="0,0" pers-end="0,0" locked="0" mesh="" flag=""/>
            <path id="shapePath4" d="M73.7009,57.6866 C73.7009,67.0243 66.1034,74.6264 56.7611,74.6264 C47.4187,74.6264 39.8258,67.0243 39.8258,57.6866 C39.8258,55.4349 40.2725,53.2943 41.0686,51.3272 L31.8211,51.3272 L31.8211,76.693 C31.8211,79.9653 34.4824,82.6266 37.7546,82.6266 L75.7652,82.6266 C79.0375,82.6266 81.6988,79.9653 81.6988,76.693 L81.6988,51.3272 L72.4466,51.3272 C73.2497,53.2943 73.7009,55.4372 73.7009,57.6866 Z" style="stroke:none;fill-rule:nonzero;fill:#125688;fill-opacity:1;"/>
        </g>
    </g>
</svg>
