<?xml version="1.0" standalone="no"?>
<!DOCTYPE svg PUBLIC "-//W3C//DTD SVG 20010904//EN"
 "http://www.w3.org/TR/2001/REC-SVG-20010904/DTD/svg10.dtd">
<svg version="1.0" xmlns="http://www.w3.org/2000/svg"
 width="1000.000000pt" height="1000.000000pt" viewBox="0 0 1000.000000 1000.000000"
 preserveAspectRatio="xMidYMid meet">
<metadata>
Created by potrace 1.11, written by Peter Selinger 2001-2013
</metadata>
<g transform="translate(0.000000,1000.000000) scale(0.100000,-0.100000)"
fill="#000000" stroke="none">
<path d="M0 5000 l0 -5000 5000 0 5000 0 0 5000 0 5000 -5000 0 -5000 0 0
-5000z m1561 703 l0 -388 93 360 c51 198 96 372 99 388 7 27 8 27 87 27 44 0
80 -4 80 -9 0 -4 -56 -222 -125 -483 l-125 -476 135 -582 c74 -320 135 -584
135 -586 0 -3 -37 -4 -82 -2 l-81 3 -108 475 -107 475 -1 -477 -1 -478 -80 0
-80 0 2 1053 c3 876 5 1057 17 1070 10 13 30 17 77 17 l64 0 1 -387z m1785
379 c33 -22 34 -44 34 -1091 l0 -1041 -64 0 c-45 0 -69 5 -80 16 -14 14 -16
125 -16 1070 l0 1054 58 0 c31 0 62 -4 68 -8z m1953 1 c0 -5 -14 -46 -32 -93
-39 -102 -51 -110 -162 -110 -50 0 -86 -5 -93 -12 -9 -9 -12 -236 -12 -960 l0
-948 -68 0 c-40 0 -73 5 -80 12 -9 9 -12 236 -12 960 l0 948 -110 0 -110 0 0
93 c0 59 4 97 12 105 14 14 668 18 667 5z m1395 -8 c9 -9 20 -33 25 -53 9 -36
231 -2005 231 -2050 0 -21 -4 -22 -85 -22 -47 0 -85 3 -85 8 1 29 -133 1421
-139 1435 -3 10 -38 -310 -76 -712 l-70 -731 -87 0 -87 0 4 28 c3 15 55 477
115 1027 61 550 113 1019 116 1043 l6 42 58 0 c40 0 64 -5 74 -15z m1567 5
c10 -6 25 -23 33 -38 8 -15 52 -283 98 -597 l83 -569 3 607 2 607 80 0 80 0 0
-1070 0 -1070 -51 0 c-42 0 -55 5 -79 28 -16 16 -33 46 -38 68 -6 21 -48 275
-94 563 l-83 523 -3 -591 -2 -591 -80 0 -80 0 0 1070 0 1070 56 0 c30 0 64 -5
75 -10z"/>
</g>
</svg>
