<?xml version="1.0" standalone="no"?>
<!DOCTYPE svg PUBLIC "-//W3C//DTD SVG 20010904//EN"
 "http://www.w3.org/TR/2001/REC-SVG-20010904/DTD/svg10.dtd">
<svg version="1.0" xmlns="http://www.w3.org/2000/svg"
 width="1080.000000pt" height="1080.000000pt" viewBox="0 0 1080.000000 1080.000000"
 preserveAspectRatio="xMidYMid meet">
<metadata>
Created by potrace 1.11, written by Peter Selinger 2001-2013
</metadata>
<g transform="translate(0.000000,1080.000000) scale(0.100000,-0.100000)"
fill="#000000" stroke="none">
<path d="M2300 5393 l0 -3293 3105 0 3105 0 0 3290 c0 1810 -2 3290 -4 3290
-2 0 -32 -50 -67 -111 -35 -61 -72 -125 -83 -143 -10 -17 -149 -256 -308 -531
-160 -275 -301 -517 -314 -537 -13 -21 -24 -40 -24 -42 0 -3 -34 -61 -75 -130
-41 -69 -75 -127 -75 -130 0 -2 -24 -44 -53 -93 -30 -48 -98 -164 -152 -258
-54 -93 -113 -195 -130 -225 -18 -30 -66 -111 -105 -180 -40 -69 -104 -178
-142 -243 l-70 -119 -17 34 c-10 18 -43 80 -73 138 -30 58 -66 125 -80 150
-14 25 -49 90 -78 145 -29 55 -65 123 -80 150 -29 54 -85 158 -158 295 -24 47
-57 108 -72 135 -15 28 -44 82 -65 120 -98 185 -132 247 -181 338 -30 53 -54
99 -54 101 0 1 -23 45 -51 97 -28 52 -71 132 -96 179 -104 196 -137 257 -153
285 -10 17 -46 84 -81 150 -34 66 -82 156 -106 200 -24 44 -51 94 -59 110 -36
73 -60 110 -69 107 -6 -1 -53 -80 -106 -175 -113 -203 -380 -683 -417 -747
-14 -25 -43 -76 -64 -114 -21 -38 -43 -75 -49 -83 -6 -7 -8 -13 -4 -13 5 0 1
-8 -7 -17 -9 -10 -30 -45 -48 -78 -17 -33 -42 -78 -54 -100 -13 -22 -34 -60
-48 -85 -13 -25 -47 -85 -75 -135 -28 -49 -63 -112 -78 -140 -15 -27 -43 -76
-61 -108 -19 -32 -34 -59 -34 -61 0 -2 -23 -43 -51 -92 -29 -49 -66 -116 -84
-149 -18 -33 -41 -76 -52 -95 -11 -19 -35 -62 -53 -95 -18 -33 -39 -69 -45
-80 -7 -11 -26 -45 -42 -75 -30 -55 -55 -100 -98 -175 -13 -22 -32 -57 -43
-77 l-19 -38 -27 40 c-14 22 -26 41 -26 43 0 3 -159 279 -199 347 -51 84 -337
576 -340 584 -2 6 -12 22 -21 36 -10 14 -27 42 -39 62 -25 45 -197 342 -346
598 -109 187 -162 278 -196 338 -11 18 -83 142 -161 275 -77 133 -152 262
-166 287 -14 25 -38 65 -53 90 l-29 45 0 -3292z"/>
</g>
</svg>
