<?xml version="1.0"?>
<svg version="1.1" xmlns="http://www.w3.org/2000/svg" xmlns:xlink="http://www.w3.org/1999/xlink" width="447.727" height="447.727">
    <desc iVinci="yes" version="4.6" gridStep="20" showGrid="yes" snapToGrid="no" codePlatform="0"/>
    <g id="Layer1" name="Layer 1" opacity="1">
        <g id="Shape1">
            <desc shapeID="1" type="0" basicInfo-basicType="0" basicInfo-roundedRectRadius="12" basicInfo-polygonSides="6" basicInfo-starPoints="5" bounding="rect(-107.379,-95.381,214.758,190.762)" text="" font-familyName="" font-pixelSize="20" font-bold="0" font-underline="0" font-alignment="1" strokeStyle="0" markerStart="0" markerEnd="0" shadowEnabled="0" shadowOffsetX="0" shadowOffsetY="2" shadowBlur="4" shadowOpacity="160" blurEnabled="0" blurRadius="4" transform="matrix(1,0,0,1.20969,340.348,203.863)" pers-center="0,0" pers-size="0,0" pers-start="0,0" pers-end="0,0" locked="0" mesh="" flag=""/>
            <path id="shapePath1" d="M447.601,252.093 C445.816,220.661 424.474,195.405 398.459,193.879 C388.517,193.296 379.153,196.105 371.086,201.428 C370.011,138.833 327.758,88.482 275.756,88.482 C262.001,88.482 248.936,92.0179 237.129,98.3627 C234.588,99.7284 232.969,102.806 232.969,106.17 L232.969,310.688 C232.969,315.413 236.136,319.244 240.042,319.244 L395.879,319.244 C425.725,319.243 449.681,288.736 447.601,252.093 Z" style="stroke:none;fill-rule:nonzero;fill:url(#linearGradientFill1);fill-opacity:1;"/><defs><linearGradient id="linearGradientFill1" gradientUnits="userSpaceOnUse" x1="340.348" y1="100.186" x2="340.348" y2="317.055"><stop offset="0" stop-color="#de9329" stop-opacity="1"/><stop offset="1" stop-color="#d64c1b" stop-opacity="1"/></linearGradient></defs>
        </g>
        <g id="Shape2">
            <desc shapeID="2" type="0" basicInfo-basicType="0" basicInfo-roundedRectRadius="12" basicInfo-polygonSides="6" basicInfo-starPoints="5" bounding="rect(-7.1205,-89.8135,14.241,179.627)" text="" font-familyName="" font-pixelSize="20" font-bold="0" font-underline="0" font-alignment="1" strokeStyle="0" markerStart="0" markerEnd="0" shadowEnabled="0" shadowOffsetX="0" shadowOffsetY="2" shadowBlur="4" shadowOpacity="160" blurEnabled="0" blurRadius="4" transform="matrix(1,0,0,1.20969,219.182,210.373)" pers-center="0,0" pers-size="0,0" pers-start="0,0" pers-end="0,0" locked="0" mesh="" flag=""/>
            <path id="shapePath2" d="M219.182,101.727 C215.249,101.727 212.062,105.583 212.062,110.34 L212.062,310.406 C212.062,315.164 215.25,319.019 219.182,319.019 C223.114,319.019 226.303,315.163 226.303,310.406 L226.303,110.34 C226.303,105.583 223.114,101.727 219.182,101.727 Z" style="stroke:none;fill-rule:nonzero;fill:url(#linearGradientFill2);fill-opacity:1;"/><defs><linearGradient id="linearGradientFill2" gradientUnits="userSpaceOnUse" x1="219.182" y1="100.186" x2="219.182" y2="317.055"><stop offset="0" stop-color="#de9329" stop-opacity="1"/><stop offset="1" stop-color="#d64c1b" stop-opacity="1"/></linearGradient></defs>
        </g>
        <g id="Shape3">
            <desc shapeID="3" type="0" basicInfo-basicType="0" basicInfo-roundedRectRadius="12" basicInfo-polygonSides="6" basicInfo-starPoints="5" bounding="rect(-7.12,-81.0195,14.24,162.039)" text="" font-familyName="" font-pixelSize="20" font-bold="0" font-underline="0" font-alignment="1" strokeStyle="0" markerStart="0" markerEnd="0" shadowEnabled="0" shadowOffsetX="0" shadowOffsetY="2" shadowBlur="4" shadowOpacity="160" blurEnabled="0" blurRadius="4" transform="matrix(1,0,0,1.20969,195.62,221.011)" pers-center="0,0" pers-size="0,0" pers-start="0,0" pers-end="0,0" locked="0" mesh="" flag=""/>
            <path id="shapePath3" d="M195.62,123.003 C191.687,123.003 188.5,126.859 188.5,131.616 L188.5,310.406 C188.5,315.164 191.688,319.019 195.62,319.019 C199.552,319.019 202.74,315.163 202.74,310.406 L202.74,131.616 C202.74,126.859 199.552,123.003 195.62,123.003 Z" style="stroke:none;fill-rule:nonzero;fill:url(#linearGradientFill3);fill-opacity:1;"/><defs><linearGradient id="linearGradientFill3" gradientUnits="userSpaceOnUse" x1="195.62" y1="100.186" x2="195.62" y2="317.055"><stop offset="0" stop-color="#de9329" stop-opacity="1"/><stop offset="1" stop-color="#d64c1b" stop-opacity="1"/></linearGradient></defs>
        </g>
        <g id="Shape4">
            <desc shapeID="4" type="0" basicInfo-basicType="0" basicInfo-roundedRectRadius="12" basicInfo-polygonSides="6" basicInfo-starPoints="5" bounding="rect(-7.12001,-77.0125,14.24,154.025)" text="" font-familyName="" font-pixelSize="20" font-bold="0" font-underline="0" font-alignment="1" strokeStyle="0" markerStart="0" markerEnd="0" shadowEnabled="0" shadowOffsetX="0" shadowOffsetY="2" shadowBlur="4" shadowOpacity="160" blurEnabled="0" blurRadius="4" transform="matrix(1,0,0,1.20969,172.057,225.858)" pers-center="0,0" pers-size="0,0" pers-start="0,0" pers-end="0,0" locked="0" mesh="" flag=""/>
            <path id="shapePath4" d="M172.057,132.697 C168.124,132.697 164.937,136.554 164.937,141.31 L164.937,310.406 C164.937,315.164 168.125,319.019 172.057,319.019 C175.99,319.019 179.177,315.163 179.177,310.406 L179.177,141.31 C179.178,136.552 175.99,132.697 172.057,132.697 Z" style="stroke:none;fill-rule:nonzero;fill:url(#linearGradientFill4);fill-opacity:1;"/><defs><linearGradient id="linearGradientFill4" gradientUnits="userSpaceOnUse" x1="172.057" y1="100.186" x2="172.057" y2="317.055"><stop offset="0" stop-color="#de9329" stop-opacity="1"/><stop offset="1" stop-color="#d64c1b" stop-opacity="1"/></linearGradient></defs>
        </g>
        <g id="Shape5">
            <desc shapeID="5" type="0" basicInfo-basicType="0" basicInfo-roundedRectRadius="12" basicInfo-polygonSides="6" basicInfo-starPoints="5" bounding="rect(-7.12,-82.355,14.24,164.71)" text="" font-familyName="" font-pixelSize="20" font-bold="0" font-underline="0" font-alignment="1" strokeStyle="0" markerStart="0" markerEnd="0" shadowEnabled="0" shadowOffsetX="0" shadowOffsetY="2" shadowBlur="4" shadowOpacity="160" blurEnabled="0" blurRadius="4" transform="matrix(1,0,0,1.20969,148.495,219.395)" pers-center="0,0" pers-size="0,0" pers-start="0,0" pers-end="0,0" locked="0" mesh="" flag=""/>
            <path id="shapePath5" d="M148.495,119.772 C144.562,119.772 141.375,123.628 141.375,128.385 L141.375,310.406 C141.375,315.164 144.563,319.019 148.495,319.019 C152.427,319.019 155.615,315.163 155.615,310.406 L155.615,128.385 C155.615,123.628 152.427,119.772 148.495,119.772 Z" style="stroke:none;fill-rule:nonzero;fill:url(#linearGradientFill5);fill-opacity:1;"/><defs><linearGradient id="linearGradientFill5" gradientUnits="userSpaceOnUse" x1="148.495" y1="100.186" x2="148.495" y2="317.055"><stop offset="0" stop-color="#de9329" stop-opacity="1"/><stop offset="1" stop-color="#d64c1b" stop-opacity="1"/></linearGradient></defs>
        </g>
        <g id="Shape6">
            <desc shapeID="6" type="0" basicInfo-basicType="0" basicInfo-roundedRectRadius="12" basicInfo-polygonSides="6" basicInfo-starPoints="5" bounding="rect(-7.12,-78.7935,14.24,157.587)" text="" font-familyName="" font-pixelSize="20" font-bold="0" font-underline="0" font-alignment="1" strokeStyle="0" markerStart="0" markerEnd="0" shadowEnabled="0" shadowOffsetX="0" shadowOffsetY="2" shadowBlur="4" shadowOpacity="160" blurEnabled="0" blurRadius="4" transform="matrix(1,0,0,1.20969,124.932,223.704)" pers-center="0,0" pers-size="0,0" pers-start="0,0" pers-end="0,0" locked="0" mesh="" flag=""/>
            <path id="shapePath6" d="M124.932,128.388 C120.999,128.388 117.812,132.245 117.812,137.001 L117.812,310.406 C117.812,315.164 121,319.019 124.932,319.019 C128.864,319.019 132.052,315.163 132.052,310.406 L132.052,137.001 C132.052,132.245 128.865,128.388 124.932,128.388 Z" style="stroke:none;fill-rule:nonzero;fill:url(#linearGradientFill6);fill-opacity:1;"/><defs><linearGradient id="linearGradientFill6" gradientUnits="userSpaceOnUse" x1="124.932" y1="100.186" x2="124.932" y2="317.055"><stop offset="0" stop-color="#de9329" stop-opacity="1"/><stop offset="1" stop-color="#d64c1b" stop-opacity="1"/></linearGradient></defs>
        </g>
        <g id="Shape7">
            <desc shapeID="7" type="0" basicInfo-basicType="0" basicInfo-roundedRectRadius="12" basicInfo-polygonSides="6" basicInfo-starPoints="5" bounding="rect(-7.12,-71.67,14.24,143.34)" text="" font-familyName="" font-pixelSize="20" font-bold="0" font-underline="0" font-alignment="1" strokeStyle="0" markerStart="0" markerEnd="0" shadowEnabled="0" shadowOffsetX="0" shadowOffsetY="2" shadowBlur="4" shadowOpacity="160" blurEnabled="0" blurRadius="4" transform="matrix(1,0,0,1.20969,101.37,232.321)" pers-center="0,0" pers-size="0,0" pers-start="0,0" pers-end="0,0" locked="0" mesh="" flag=""/>
            <path id="shapePath7" d="M101.37,145.623 C97.437,145.623 94.25,149.479 94.25,154.236 L94.25,310.406 C94.25,315.164 97.438,319.019 101.37,319.019 C105.302,319.019 108.49,315.163 108.49,310.406 L108.49,154.236 C108.491,149.478 105.303,145.623 101.37,145.623 Z" style="stroke:none;fill-rule:nonzero;fill:url(#linearGradientFill7);fill-opacity:1;"/><defs><linearGradient id="linearGradientFill7" gradientUnits="userSpaceOnUse" x1="101.37" y1="100.186" x2="101.37" y2="317.055"><stop offset="0" stop-color="#de9329" stop-opacity="1"/><stop offset="1" stop-color="#d64c1b" stop-opacity="1"/></linearGradient></defs>
        </g>
        <g id="Shape8">
            <desc shapeID="8" type="0" basicInfo-basicType="0" basicInfo-roundedRectRadius="12" basicInfo-polygonSides="6" basicInfo-starPoints="5" bounding="rect(-7.12,-57.869,14.24,115.738)" text="" font-familyName="" font-pixelSize="20" font-bold="0" font-underline="0" font-alignment="1" strokeStyle="0" markerStart="0" markerEnd="0" shadowEnabled="0" shadowOffsetX="0" shadowOffsetY="2" shadowBlur="4" shadowOpacity="160" blurEnabled="0" blurRadius="4" transform="matrix(1,0,0,1.20969,77.808,249.016)" pers-center="0,0" pers-size="0,0" pers-start="0,0" pers-end="0,0" locked="0" mesh="" flag=""/>
            <path id="shapePath8" d="M77.808,179.012 C73.875,179.012 70.688,182.869 70.688,187.625 L70.688,310.406 C70.688,315.164 73.876,319.019 77.808,319.019 C81.741,319.019 84.928,315.163 84.928,310.406 L84.928,187.625 C84.928,182.869 81.74,179.012 77.808,179.012 Z" style="stroke:none;fill-rule:nonzero;fill:url(#linearGradientFill8);fill-opacity:1;"/><defs><linearGradient id="linearGradientFill8" gradientUnits="userSpaceOnUse" x1="77.808" y1="100.186" x2="77.808" y2="317.055"><stop offset="0" stop-color="#de9329" stop-opacity="1"/><stop offset="1" stop-color="#d64c1b" stop-opacity="1"/></linearGradient></defs>
        </g>
        <g id="Shape9">
            <desc shapeID="9" type="0" basicInfo-basicType="0" basicInfo-roundedRectRadius="12" basicInfo-polygonSides="6" basicInfo-starPoints="5" bounding="rect(-7.12,-52.0815,14.24,104.163)" text="" font-familyName="" font-pixelSize="20" font-bold="0" font-underline="0" font-alignment="1" strokeStyle="0" markerStart="0" markerEnd="0" shadowEnabled="0" shadowOffsetX="0" shadowOffsetY="2" shadowBlur="4" shadowOpacity="160" blurEnabled="0" blurRadius="4" transform="matrix(1,0,0,1.20969,54.245,256.017)" pers-center="0,0" pers-size="0,0" pers-start="0,0" pers-end="0,0" locked="0" mesh="" flag=""/>
            <path id="shapePath9" d="M54.245,193.014 C50.312,193.014 47.125,196.871 47.125,201.627 L47.125,310.406 C47.125,315.164 50.313,319.019 54.245,319.019 C58.177,319.019 61.365,315.162 61.365,310.406 L61.365,201.627 C61.365,196.871 58.178,193.014 54.245,193.014 Z" style="stroke:none;fill-rule:nonzero;fill:url(#linearGradientFill9);fill-opacity:1;"/><defs><linearGradient id="linearGradientFill9" gradientUnits="userSpaceOnUse" x1="54.245" y1="100.186" x2="54.245" y2="317.055"><stop offset="0" stop-color="#de9329" stop-opacity="1"/><stop offset="1" stop-color="#d64c1b" stop-opacity="1"/></linearGradient></defs>
        </g>
        <g id="Shape10">
            <desc shapeID="10" type="0" basicInfo-basicType="0" basicInfo-roundedRectRadius="12" basicInfo-polygonSides="6" basicInfo-starPoints="5" bounding="rect(-7.12,-49.4255,14.24,98.851)" text="" font-familyName="" font-pixelSize="20" font-bold="0" font-underline="0" font-alignment="1" strokeStyle="0" markerStart="0" markerEnd="0" shadowEnabled="0" shadowOffsetX="0" shadowOffsetY="2" shadowBlur="4" shadowOpacity="160" blurEnabled="0" blurRadius="4" transform="matrix(1,0,0,1.20969,30.683,256.017)" pers-center="0,0" pers-size="0,0" pers-start="0,0" pers-end="0,0" locked="0" mesh="" flag=""/>
            <path id="shapePath10" d="M30.683,196.227 C26.75,196.227 23.563,200.084 23.563,204.84 L23.563,307.193 C23.563,311.951 26.751,315.806 30.683,315.806 C34.615,315.806 37.803,311.95 37.803,307.193 L37.803,204.84 C37.803,200.084 34.615,196.227 30.683,196.227 Z" style="stroke:none;fill-rule:nonzero;fill:url(#linearGradientFill10);fill-opacity:1;"/><defs><linearGradient id="linearGradientFill10" gradientUnits="userSpaceOnUse" x1="30.683" y1="100.186" x2="30.683" y2="317.055"><stop offset="0" stop-color="#de9329" stop-opacity="1"/><stop offset="1" stop-color="#d64c1b" stop-opacity="1"/></linearGradient></defs>
        </g>
        <g id="Shape11">
            <desc shapeID="11" type="0" basicInfo-basicType="0" basicInfo-roundedRectRadius="12" basicInfo-polygonSides="6" basicInfo-starPoints="5" bounding="rect(-7.12,-31.498,14.24,62.996)" text="" font-familyName="" font-pixelSize="20" font-bold="0" font-underline="0" font-alignment="1" strokeStyle="0" markerStart="0" markerEnd="0" shadowEnabled="0" shadowOffsetX="0" shadowOffsetY="2" shadowBlur="4" shadowOpacity="160" blurEnabled="0" blurRadius="4" transform="matrix(1,0,0,1.20969,7.12,256.821)" pers-center="0,0" pers-size="0,0" pers-start="0,0" pers-end="0,0" locked="0" mesh="" flag=""/>
            <path id="shapePath11" d="M7.12,218.718 C3.187,218.718 0,222.574 0,227.331 L0,286.31 C0,291.068 3.188,294.923 7.12,294.923 C11.052,294.923 14.24,291.067 14.24,286.31 L14.24,227.331 C14.24,222.573 11.053,218.718 7.12,218.718 Z" style="stroke:none;fill-rule:nonzero;fill:url(#linearGradientFill11);fill-opacity:1;"/><defs><linearGradient id="linearGradientFill11" gradientUnits="userSpaceOnUse" x1="7.12" y1="100.186" x2="7.12" y2="317.055"><stop offset="0" stop-color="#de9329" stop-opacity="1"/><stop offset="1" stop-color="#d64c1b" stop-opacity="1"/></linearGradient></defs>
        </g>
    </g>
</svg>
