<?xml version="1.0"?>
<svg version="1.1" xmlns="http://www.w3.org/2000/svg" xmlns:xlink="http://www.w3.org/1999/xlink" width="447.727" height="447.727">
    <desc iVinci="yes" version="4.6" gridStep="20" showGrid="no" snapToGrid="no" codePlatform="0"/>
    <g id="Layer1" name="Layer 1" opacity="1">
        <g id="Shape1">
            <desc shapeID="1" type="0" basicInfo-basicType="0" basicInfo-roundedRectRadius="12" basicInfo-polygonSides="6" basicInfo-starPoints="5" bounding="rect(-107.379,-95.381,214.758,190.762)" text="" font-familyName="" font-pixelSize="20" font-bold="0" font-underline="0" font-alignment="1" strokeStyle="0" markerStart="0" markerEnd="0" shadowEnabled="0" shadowOffsetX="0" shadowOffsetY="2" shadowBlur="4" shadowOpacity="160" blurEnabled="0" blurRadius="4" transform="matrix(1,0,0,1.20444,340.348,204.363)" pers-center="0,0" pers-size="0,0" pers-start="0,0" pers-end="0,0" locked="0" mesh="" flag=""/>
            <path id="shapePath1" d="M447.601,252.384 C445.816,221.088 424.474,195.942 398.459,194.423 C388.517,193.842 379.153,196.639 371.086,201.938 C370.011,139.615 327.758,89.482 275.756,89.482 C262.001,89.482 248.936,93.0026 237.129,99.3199 C234.588,100.68 232.969,103.744 232.969,107.093 L232.969,310.725 C232.969,315.43 236.136,319.244 240.042,319.244 L395.879,319.244 C425.725,319.243 449.681,288.868 447.601,252.384 Z" style="stroke:none;fill-rule:nonzero;fill:url(#linearGradientFill1);fill-opacity:1;"/><defs><linearGradient id="linearGradientFill1" gradientUnits="userSpaceOnUse" x1="340.348" y1="101.135" x2="340.348" y2="317.064"><stop offset="0" stop-color="#000000" stop-opacity="1"/><stop offset="1" stop-color="#000000" stop-opacity="1"/></linearGradient></defs>
        </g>
        <g id="Shape2">
            <desc shapeID="2" type="0" basicInfo-basicType="0" basicInfo-roundedRectRadius="12" basicInfo-polygonSides="6" basicInfo-starPoints="5" bounding="rect(-7.1205,-89.8135,14.241,179.627)" text="" font-familyName="" font-pixelSize="20" font-bold="0" font-underline="0" font-alignment="1" strokeStyle="0" markerStart="0" markerEnd="0" shadowEnabled="0" shadowOffsetX="0" shadowOffsetY="2" shadowBlur="4" shadowOpacity="160" blurEnabled="0" blurRadius="4" transform="matrix(1,0,0,1.20444,219.182,210.845)" pers-center="0,0" pers-size="0,0" pers-start="0,0" pers-end="0,0" locked="0" mesh="" flag=""/>
            <path id="shapePath2" d="M219.182,102.669 C215.249,102.669 212.062,106.509 212.062,111.245 L212.062,310.444 C212.062,315.181 215.25,319.02 219.182,319.02 C223.114,319.02 226.303,315.18 226.303,310.444 L226.303,111.245 C226.303,106.509 223.114,102.669 219.182,102.669 Z" style="stroke:none;fill-rule:nonzero;fill:url(#linearGradientFill2);fill-opacity:1;"/><defs><linearGradient id="linearGradientFill2" gradientUnits="userSpaceOnUse" x1="340.348" y1="101.135" x2="340.348" y2="317.064"><stop offset="0" stop-color="#000000" stop-opacity="1"/><stop offset="1" stop-color="#000000" stop-opacity="1"/></linearGradient></defs>
        </g>
        <g id="Shape3">
            <desc shapeID="3" type="0" basicInfo-basicType="0" basicInfo-roundedRectRadius="12" basicInfo-polygonSides="6" basicInfo-starPoints="5" bounding="rect(-7.12,-81.0195,14.24,162.039)" text="" font-familyName="" font-pixelSize="20" font-bold="0" font-underline="0" font-alignment="1" strokeStyle="0" markerStart="0" markerEnd="0" shadowEnabled="0" shadowOffsetX="0" shadowOffsetY="2" shadowBlur="4" shadowOpacity="160" blurEnabled="0" blurRadius="4" transform="matrix(1,0,0,1.20444,195.62,221.437)" pers-center="0,0" pers-size="0,0" pers-start="0,0" pers-end="0,0" locked="0" mesh="" flag=""/>
            <path id="shapePath3" d="M195.62,123.853 C191.687,123.853 188.5,127.693 188.5,132.429 L188.5,310.444 C188.5,315.181 191.688,319.02 195.62,319.02 C199.552,319.02 202.74,315.18 202.74,310.444 L202.74,132.429 C202.74,127.693 199.552,123.853 195.62,123.853 Z" style="stroke:none;fill-rule:nonzero;fill:url(#linearGradientFill3);fill-opacity:1;"/><defs><linearGradient id="linearGradientFill3" gradientUnits="userSpaceOnUse" x1="340.348" y1="101.135" x2="340.348" y2="317.064"><stop offset="0" stop-color="#000000" stop-opacity="1"/><stop offset="1" stop-color="#000000" stop-opacity="1"/></linearGradient></defs>
        </g>
        <g id="Shape4">
            <desc shapeID="4" type="0" basicInfo-basicType="0" basicInfo-roundedRectRadius="12" basicInfo-polygonSides="6" basicInfo-starPoints="5" bounding="rect(-7.12001,-77.0125,14.24,154.025)" text="" font-familyName="" font-pixelSize="20" font-bold="0" font-underline="0" font-alignment="1" strokeStyle="0" markerStart="0" markerEnd="0" shadowEnabled="0" shadowOffsetX="0" shadowOffsetY="2" shadowBlur="4" shadowOpacity="160" blurEnabled="0" blurRadius="4" transform="matrix(1,0,0,1.20444,172.057,226.263)" pers-center="0,0" pers-size="0,0" pers-start="0,0" pers-end="0,0" locked="0" mesh="" flag=""/>
            <path id="shapePath4" d="M172.057,133.506 C168.124,133.506 164.937,137.345 164.937,142.081 L164.937,310.444 C164.937,315.181 168.125,319.02 172.057,319.02 C175.99,319.02 179.177,315.18 179.177,310.444 L179.177,142.081 C179.178,137.344 175.99,133.506 172.057,133.506 Z" style="stroke:none;fill-rule:nonzero;fill:url(#linearGradientFill4);fill-opacity:1;"/><defs><linearGradient id="linearGradientFill4" gradientUnits="userSpaceOnUse" x1="340.348" y1="101.135" x2="340.348" y2="317.064"><stop offset="0" stop-color="#000000" stop-opacity="1"/><stop offset="1" stop-color="#000000" stop-opacity="1"/></linearGradient></defs>
        </g>
        <g id="Shape5">
            <desc shapeID="5" type="0" basicInfo-basicType="0" basicInfo-roundedRectRadius="12" basicInfo-polygonSides="6" basicInfo-starPoints="5" bounding="rect(-7.12,-82.355,14.24,164.71)" text="" font-familyName="" font-pixelSize="20" font-bold="0" font-underline="0" font-alignment="1" strokeStyle="0" markerStart="0" markerEnd="0" shadowEnabled="0" shadowOffsetX="0" shadowOffsetY="2" shadowBlur="4" shadowOpacity="160" blurEnabled="0" blurRadius="4" transform="matrix(1,0,0,1.20444,148.495,219.828)" pers-center="0,0" pers-size="0,0" pers-start="0,0" pers-end="0,0" locked="0" mesh="" flag=""/>
            <path id="shapePath5" d="M148.495,120.636 C144.562,120.636 141.375,124.476 141.375,129.212 L141.375,310.444 C141.375,315.181 144.563,319.02 148.495,319.02 C152.427,319.02 155.615,315.18 155.615,310.444 L155.615,129.212 C155.615,124.476 152.427,120.636 148.495,120.636 Z" style="stroke:none;fill-rule:nonzero;fill:url(#linearGradientFill5);fill-opacity:1;"/><defs><linearGradient id="linearGradientFill5" gradientUnits="userSpaceOnUse" x1="340.348" y1="101.135" x2="340.348" y2="317.064"><stop offset="0" stop-color="#000000" stop-opacity="1"/><stop offset="1" stop-color="#000000" stop-opacity="1"/></linearGradient></defs>
        </g>
        <g id="Shape6">
            <desc shapeID="6" type="0" basicInfo-basicType="0" basicInfo-roundedRectRadius="12" basicInfo-polygonSides="6" basicInfo-starPoints="5" bounding="rect(-7.12,-78.7935,14.24,157.587)" text="" font-familyName="" font-pixelSize="20" font-bold="0" font-underline="0" font-alignment="1" strokeStyle="0" markerStart="0" markerEnd="0" shadowEnabled="0" shadowOffsetX="0" shadowOffsetY="2" shadowBlur="4" shadowOpacity="160" blurEnabled="0" blurRadius="4" transform="matrix(1,0,0,1.20444,124.932,224.118)" pers-center="0,0" pers-size="0,0" pers-start="0,0" pers-end="0,0" locked="0" mesh="" flag=""/>
            <path id="shapePath6" d="M124.932,129.215 C120.999,129.215 117.812,133.055 117.812,137.791 L117.812,310.444 C117.812,315.181 121,319.02 124.932,319.02 C128.864,319.02 132.052,315.18 132.052,310.444 L132.052,137.791 C132.052,133.055 128.865,129.215 124.932,129.215 Z" style="stroke:none;fill-rule:nonzero;fill:url(#linearGradientFill6);fill-opacity:1;"/><defs><linearGradient id="linearGradientFill6" gradientUnits="userSpaceOnUse" x1="340.348" y1="101.135" x2="340.348" y2="317.064"><stop offset="0" stop-color="#000000" stop-opacity="1"/><stop offset="1" stop-color="#000000" stop-opacity="1"/></linearGradient></defs>
        </g>
        <g id="Shape7">
            <desc shapeID="7" type="0" basicInfo-basicType="0" basicInfo-roundedRectRadius="12" basicInfo-polygonSides="6" basicInfo-starPoints="5" bounding="rect(-7.12,-71.67,14.24,143.34)" text="" font-familyName="" font-pixelSize="20" font-bold="0" font-underline="0" font-alignment="1" strokeStyle="0" markerStart="0" markerEnd="0" shadowEnabled="0" shadowOffsetX="0" shadowOffsetY="2" shadowBlur="4" shadowOpacity="160" blurEnabled="0" blurRadius="4" transform="matrix(1,0,0,1.20444,101.37,232.698)" pers-center="0,0" pers-size="0,0" pers-start="0,0" pers-end="0,0" locked="0" mesh="" flag=""/>
            <path id="shapePath7" d="M101.37,146.375 C97.437,146.375 94.25,150.215 94.25,154.951 L94.25,310.444 C94.25,315.181 97.438,319.02 101.37,319.02 C105.302,319.02 108.49,315.18 108.49,310.444 L108.49,154.951 C108.491,150.214 105.303,146.375 101.37,146.375 Z" style="stroke:none;fill-rule:nonzero;fill:url(#linearGradientFill7);fill-opacity:1;"/><defs><linearGradient id="linearGradientFill7" gradientUnits="userSpaceOnUse" x1="340.348" y1="101.135" x2="340.348" y2="317.064"><stop offset="0" stop-color="#000000" stop-opacity="1"/><stop offset="1" stop-color="#000000" stop-opacity="1"/></linearGradient></defs>
        </g>
        <g id="Shape8">
            <desc shapeID="8" type="0" basicInfo-basicType="0" basicInfo-roundedRectRadius="12" basicInfo-polygonSides="6" basicInfo-starPoints="5" bounding="rect(-7.12,-57.869,14.24,115.738)" text="" font-familyName="" font-pixelSize="20" font-bold="0" font-underline="0" font-alignment="1" strokeStyle="0" markerStart="0" markerEnd="0" shadowEnabled="0" shadowOffsetX="0" shadowOffsetY="2" shadowBlur="4" shadowOpacity="160" blurEnabled="0" blurRadius="4" transform="matrix(1,0,0,1.20444,77.808,249.32)" pers-center="0,0" pers-size="0,0" pers-start="0,0" pers-end="0,0" locked="0" mesh="" flag=""/>
            <path id="shapePath8" d="M77.808,179.62 C73.875,179.62 70.688,183.46 70.688,188.196 L70.688,310.444 C70.688,315.181 73.876,319.02 77.808,319.02 C81.741,319.02 84.928,315.18 84.928,310.444 L84.928,188.196 C84.928,183.46 81.74,179.62 77.808,179.62 Z" style="stroke:none;fill-rule:nonzero;fill:url(#linearGradientFill8);fill-opacity:1;"/><defs><linearGradient id="linearGradientFill8" gradientUnits="userSpaceOnUse" x1="340.348" y1="101.135" x2="340.348" y2="317.064"><stop offset="0" stop-color="#000000" stop-opacity="1"/><stop offset="1" stop-color="#000000" stop-opacity="1"/></linearGradient></defs>
        </g>
        <g id="Shape9">
            <desc shapeID="9" type="0" basicInfo-basicType="0" basicInfo-roundedRectRadius="12" basicInfo-polygonSides="6" basicInfo-starPoints="5" bounding="rect(-7.12,-52.0815,14.24,104.163)" text="" font-familyName="" font-pixelSize="20" font-bold="0" font-underline="0" font-alignment="1" strokeStyle="0" markerStart="0" markerEnd="0" shadowEnabled="0" shadowOffsetX="0" shadowOffsetY="2" shadowBlur="4" shadowOpacity="160" blurEnabled="0" blurRadius="4" transform="matrix(1,0,0,1.20444,54.245,256.291)" pers-center="0,0" pers-size="0,0" pers-start="0,0" pers-end="0,0" locked="0" mesh="" flag=""/>
            <path id="shapePath9" d="M54.245,193.562 C50.312,193.562 47.125,197.401 47.125,202.137 L47.125,310.444 C47.125,315.181 50.313,319.02 54.245,319.02 C58.177,319.02 61.365,315.18 61.365,310.444 L61.365,202.137 C61.365,197.401 58.178,193.562 54.245,193.562 Z" style="stroke:none;fill-rule:nonzero;fill:url(#linearGradientFill9);fill-opacity:1;"/><defs><linearGradient id="linearGradientFill9" gradientUnits="userSpaceOnUse" x1="340.348" y1="101.135" x2="340.348" y2="317.064"><stop offset="0" stop-color="#000000" stop-opacity="1"/><stop offset="1" stop-color="#000000" stop-opacity="1"/></linearGradient></defs>
        </g>
        <g id="Shape10">
            <desc shapeID="10" type="0" basicInfo-basicType="0" basicInfo-roundedRectRadius="12" basicInfo-polygonSides="6" basicInfo-starPoints="5" bounding="rect(-7.12,-49.4255,14.24,98.851)" text="" font-familyName="" font-pixelSize="20" font-bold="0" font-underline="0" font-alignment="1" strokeStyle="0" markerStart="0" markerEnd="0" shadowEnabled="0" shadowOffsetX="0" shadowOffsetY="2" shadowBlur="4" shadowOpacity="160" blurEnabled="0" blurRadius="4" transform="matrix(1,0,0,1.20444,30.683,256.291)" pers-center="0,0" pers-size="0,0" pers-start="0,0" pers-end="0,0" locked="0" mesh="" flag=""/>
            <path id="shapePath10" d="M30.683,196.761 C26.75,196.761 23.563,200.6 23.563,205.336 L23.563,307.245 C23.563,311.982 26.751,315.821 30.683,315.821 C34.615,315.821 37.803,311.981 37.803,307.245 L37.803,205.336 C37.803,200.6 34.615,196.761 30.683,196.761 Z" style="stroke:none;fill-rule:nonzero;fill:url(#linearGradientFill10);fill-opacity:1;"/><defs><linearGradient id="linearGradientFill10" gradientUnits="userSpaceOnUse" x1="340.348" y1="101.135" x2="340.348" y2="317.064"><stop offset="0" stop-color="#000000" stop-opacity="1"/><stop offset="1" stop-color="#000000" stop-opacity="1"/></linearGradient></defs>
        </g>
        <g id="Shape11">
            <desc shapeID="11" type="0" basicInfo-basicType="0" basicInfo-roundedRectRadius="12" basicInfo-polygonSides="6" basicInfo-starPoints="5" bounding="rect(-7.12,-31.498,14.24,62.996)" text="" font-familyName="" font-pixelSize="20" font-bold="0" font-underline="0" font-alignment="1" strokeStyle="0" markerStart="0" markerEnd="0" shadowEnabled="0" shadowOffsetX="0" shadowOffsetY="2" shadowBlur="4" shadowOpacity="160" blurEnabled="0" blurRadius="4" transform="matrix(1,0,0,1.20444,7.12,257.091)" pers-center="0,0" pers-size="0,0" pers-start="0,0" pers-end="0,0" locked="0" mesh="" flag=""/>
            <path id="shapePath11" d="M7.12,219.154 C3.187,219.154 0,222.993 0,227.729 L0,286.453 C0,291.19 3.188,295.029 7.12,295.029 C11.052,295.029 14.24,291.189 14.24,286.453 L14.24,227.729 C14.24,222.992 11.053,219.154 7.12,219.154 Z" style="stroke:none;fill-rule:nonzero;fill:url(#linearGradientFill11);fill-opacity:1;"/><defs><linearGradient id="linearGradientFill11" gradientUnits="userSpaceOnUse" x1="340.348" y1="101.135" x2="340.348" y2="317.064"><stop offset="0" stop-color="#000000" stop-opacity="1"/><stop offset="1" stop-color="#000000" stop-opacity="1"/></linearGradient></defs>
        </g>
    </g>
</svg>
